<svg width="25" height="25" viewBox="0 0 60 60" fill="none" xmlns="http://www.w3.org/2000/svg">
<path fill-rule="evenodd" clip-rule="evenodd" d="M17.5455 0.179121C20.7299 0.0331644 21.7449 0 29.8534 0C37.9635 0 38.9769 0.0348199 42.1596 0.179121C45.339 0.323421 47.5101 0.829274 49.4091 1.56731C51.4009 2.3172 53.2051 3.49215 54.6964 5.01041C56.2149 6.50154 57.39 8.30594 58.1396 10.2978C58.8775 12.1968 59.3818 14.3678 59.5278 17.5455C59.6738 20.7299 59.7069 21.7449 59.7069 29.8534C59.7069 37.9619 59.6722 38.9769 59.5278 42.1615C59.3834 45.339 58.8775 47.5101 58.1396 49.4091C57.3767 51.3713 56.3549 53.0379 54.6964 54.6964C53.2054 56.2149 51.4009 57.39 49.4091 58.1396C47.5101 58.8775 45.339 59.3818 42.1615 59.5278C38.9769 59.6738 37.9619 59.7069 29.8534 59.7069C21.7449 59.7069 20.7299 59.6722 17.5455 59.5278C14.3678 59.3834 12.1968 58.8775 10.2978 58.1396C8.33573 57.3767 6.66893 56.3549 5.01041 54.6964C3.49188 53.2054 2.31684 51.4009 1.56731 49.4091C0.829274 47.5101 0.325077 45.339 0.179121 42.1615C0.0331644 38.9769 0 37.9635 0 29.8534C0 21.7433 0.0348199 20.7299 0.179121 17.5472C0.323421 14.3678 0.829274 12.1968 1.56731 10.2978C2.3172 8.30607 3.49215 6.50175 5.01041 5.01041C6.50151 3.49188 8.30591 2.31684 10.2978 1.56731C12.1968 0.829274 14.3678 0.325077 17.5455 0.179121V0.179121ZM41.9175 5.55274C38.7696 5.4101 37.8243 5.37859 29.8534 5.37859C21.8826 5.37859 20.9372 5.4101 17.7893 5.55274C14.8786 5.68543 13.2981 6.17136 12.2465 6.58103C10.8534 7.1217 9.85826 7.76852 8.81339 8.81339C7.7702 9.85826 7.1217 10.8534 6.58103 12.2465C6.17136 13.2981 5.68543 14.8786 5.55274 17.7893C5.4101 20.9372 5.37859 21.8826 5.37859 29.8534C5.37859 37.8243 5.4101 38.7696 5.55274 41.9175C5.68543 44.8282 6.17136 46.4088 6.58103 47.4605C7.05928 48.7572 7.82212 49.9302 8.81339 50.8936C9.77657 51.8847 10.9497 52.6476 12.2465 53.1258C13.2981 53.5356 14.8786 54.0214 17.7893 54.1542C20.9372 54.2969 21.8809 54.3284 29.8534 54.3284C37.8259 54.3284 38.7696 54.2969 41.9175 54.1542C44.8282 54.0214 46.4088 53.5356 47.4605 53.1258C48.8535 52.5852 49.8487 51.9385 50.8936 50.8936C51.8847 49.9304 52.6476 48.7572 53.1258 47.4605C53.5356 46.4088 54.0214 44.8282 54.1542 41.9175C54.2969 38.7696 54.3284 37.8243 54.3284 29.8534C54.3284 21.8826 54.2969 20.9372 54.1542 17.7893C54.0214 14.8786 53.5356 13.2981 53.1258 12.2465C52.5852 10.8534 51.9385 9.85826 50.8936 8.81339C49.8487 7.7702 48.8535 7.1217 47.4605 6.58103C46.4088 6.17136 44.8282 5.68543 41.9175 5.55274V5.55274ZM26.0417 39.0562C27.2502 39.5569 28.5453 39.8145 29.8534 39.8145C32.4955 39.8145 35.0289 38.765 36.897 36.897C38.7652 35.0289 39.8147 32.4952 39.8147 29.8534C39.8147 27.2117 38.7652 24.6779 36.897 22.8099C35.0289 20.9418 32.4955 19.8923 29.8534 19.8923C28.5453 19.8923 27.2502 20.15 26.0417 20.6506C24.8329 21.1512 23.7349 21.8849 22.81 22.8099C21.885 23.7348 21.1512 24.8329 20.6507 26.0414C20.1501 27.25 19.8924 28.5453 19.8924 29.8534C19.8924 31.1616 20.1501 32.4569 20.6507 33.6655C21.1512 34.874 21.885 35.972 22.81 36.897C23.7349 37.8219 24.8329 38.5557 26.0417 39.0562V39.0562ZM19.0032 19.0031C21.8809 16.1254 25.7839 14.5087 29.8534 14.5087C33.9233 14.5087 37.8262 16.1254 40.7038 19.0031C43.5814 21.8808 45.1981 25.7839 45.1981 29.8534C45.1981 33.923 43.5814 37.8259 40.7038 40.7038C37.8262 43.5814 33.9233 45.1981 29.8534 45.1981C25.7839 45.1981 21.8809 43.5814 19.0032 40.7038C16.1255 37.8259 14.5089 33.923 14.5089 29.8534C14.5089 25.7839 16.1255 21.8808 19.0032 19.0031V19.0031ZM48.6006 16.795C49.2807 16.1147 49.6628 15.1921 49.6628 14.2301C49.6628 13.2681 49.2807 12.3455 48.6006 11.6653C47.9202 10.9851 46.9977 10.6029 46.0356 10.6029C45.0738 10.6029 44.1511 10.9851 43.471 11.6653C42.7906 12.3455 42.4085 13.2681 42.4085 14.2301C42.4085 15.1921 42.7906 16.1147 43.471 16.795C44.1511 17.4752 45.0738 17.8573 46.0356 17.8573C46.9977 17.8573 47.9202 17.4752 48.6006 16.795Z" fill="black"/>
</svg>
