<svg width="20" height="20" viewBox="0 0 60 60" fill="none" xmlns="http://www.w3.org/2000/svg">
<path d="M12.9612 59.4944H0.212433V16.9984H12.9612V59.4944ZM59.7068 59.4944H46.958V36.793C46.958 30.8776 44.8502 27.9326 40.6729 27.9326C37.3624 27.9326 35.2631 29.5815 34.2092 32.8834V59.4944H21.4604C21.4604 59.4944 21.6304 21.248 21.4604 16.9984H31.5235L32.3012 25.4976H32.5646C35.1781 21.248 39.3555 18.3668 45.084 18.3668C49.4398 18.3668 52.9627 19.5779 55.6527 22.6206C58.3597 25.6676 59.7068 29.7557 59.7068 35.4969V59.4944Z" fill="black"/>
<path d="M6.58688 12.7488C10.2247 12.7488 13.1738 9.89489 13.1738 6.3744C13.1738 2.85392 10.2247 0 6.58688 0C2.94905 0 0 2.85392 0 6.3744C0 9.89489 2.94905 12.7488 6.58688 12.7488Z" fill="black"/>
</svg>
